<?xml version="1.0" encoding="utf-8"?>
<!-- Generator: Adobe Illustrator 16.0.4, SVG Export Plug-In . SVG Version: 6.00 Build 0)  -->
<!DOCTYPE svg PUBLIC "-//W3C//DTD SVG 1.1//EN" "http://www.w3.org/Graphics/SVG/1.1/DTD/svg11.dtd">
<svg version="1.1" id="Layer_1" xmlns="http://www.w3.org/2000/svg" xmlns:xlink="http://www.w3.org/1999/xlink" x="0px" y="0px"
	 width="90px" height="90px" viewBox="0 0 90 90" enable-background="new 0 0 90 90" xml:space="preserve">
<g>
	<path fill="#898989" d="M19.083,71.785l1.943-13.637c0.185-1.357,0.797-2.498,1.836-3.424c1.038-0.926,2.206-1.389,3.501-1.389
		h32.826c1.295,0,2.463,0.463,3.502,1.389c1.037,0.926,1.65,2.066,1.834,3.424l1.945,13.637H19.083z M32.226,29.643
		c0-2.9,1.033-5.383,3.1-7.45c2.067-2.067,4.551-3.101,7.451-3.101c2.899,0,5.384,1.033,7.45,3.101
		c2.066,2.067,3.102,4.55,3.102,7.45c0,0.946-0.125,1.831-0.371,2.653l-2.469,9.718h-0.061c-0.412,1.77-1.326,3.224-2.746,4.365
		c-1.42,1.142-3.054,1.713-4.905,1.713s-3.486-0.571-4.905-1.713c-1.419-1.141-2.334-2.596-2.746-4.365h-0.062l-2.468-9.718
		C32.349,31.453,32.226,30.568,32.226,29.643z"/>
</g>
<g>
	<path fill="#898989" stroke="#FFFFFF" stroke-miterlimit="10" d="M52.78,59.226h7.523v-7.563h6.345v7.563h7.562v6.345h-7.562v7.523
		h-6.345V65.57H52.78V59.226z"/>
</g>
<g>
</g>
<g>
</g>
<g>
</g>
<g>
</g>
<g>
</g>
<g>
</g>
<g>
</g>
<g>
</g>
<g>
</g>
<g>
</g>
<g>
</g>
<g>
</g>
<g>
</g>
<g>
</g>
<g>
</g>
</svg>
