<?xml version="1.0" encoding="utf-8"?>
<!-- Generator: Adobe Illustrator 16.0.4, SVG Export Plug-In . SVG Version: 6.00 Build 0)  -->
<!DOCTYPE svg PUBLIC "-//W3C//DTD SVG 1.1//EN" "http://www.w3.org/Graphics/SVG/1.1/DTD/svg11.dtd">
<svg version="1.1" id="Layer_1" xmlns="http://www.w3.org/2000/svg" xmlns:xlink="http://www.w3.org/1999/xlink" x="0px" y="0px"
	 width="90px" height="90px" viewBox="0 0 90 90" enable-background="new 0 0 90 90" xml:space="preserve">
<g>
</g>
<g>
	<path fill="#898989" d="M26.298,66.784V40.438h6.571V32.54c0-3.291,1.157-6.083,3.471-8.376c2.313-2.293,5.101-3.44,8.361-3.44
		c3.26,0,6.062,1.147,8.406,3.44c2.346,2.293,3.518,5.085,3.518,8.376v7.898h6.57v26.346H26.298z M38.176,40.438h13.143v-7.864
		c0-1.823-0.639-3.369-1.912-4.639c-1.275-1.27-2.828-1.905-4.659-1.905c-1.831,0-3.383,0.635-4.659,1.905s-1.913,2.816-1.913,4.639
		V40.438z M42.094,50.988c0,0.946,0.442,1.707,1.327,2.283v5.614h2.654v-5.614c0.883-0.576,1.326-1.337,1.326-2.283
		c0-0.72-0.262-1.342-0.787-1.866c-0.524-0.524-1.146-0.787-1.866-0.787c-0.72,0-1.342,0.263-1.867,0.787
		C42.356,49.646,42.094,50.269,42.094,50.988z"/>
</g>
<g>
</g>
<g>
</g>
<g>
</g>
<g>
</g>
<g>
</g>
<g>
</g>
<g>
</g>
<g>
</g>
<g>
</g>
<g>
</g>
<g>
</g>
<g>
</g>
<g>
</g>
<g>
</g>
<g>
</g>
</svg>
